<svg xmlns="http://www.w3.org/2000/svg" xmlns:xlink="http://www.w3.org/1999/xlink" width="1920" zoomAndPan="magnify" viewBox="0 0 1440 809.999993" height="1080" preserveAspectRatio="xMidYMid meet" version="1.0"><defs><g/></defs><path fill="#ed4751" d="M 224.917969 212.964844 C 223.210938 213.082031 220.78125 213.25 219.519531 213.339844 C 211.09375 213.917969 201.4375 215.207031 194.789062 216.636719 C 184.910156 218.757812 173.164062 222.140625 165.542969 225.0625 C 152.820312 229.9375 148.292969 231.980469 138.320312 237.375 C 124.121094 245.050781 115.636719 250.898438 101.882812 262.484375 C 97.8125 265.910156 87.871094 275.785156 83.519531 280.714844 C 73.285156 292.324219 67.523438 300.585938 58.878906 316.070312 C 53.464844 325.765625 48.308594 337.878906 44.613281 349.597656 C 40.210938 363.550781 38.542969 371.789062 36.660156 388.890625 C 36.085938 394.078125 35.828125 411.300781 36.238281 417.007812 C 36.855469 425.636719 38.496094 436.898438 40.234375 444.402344 C 41.429688 449.574219 43.019531 455.957031 43.460938 457.355469 C 44.410156 460.371094 47.367188 468.632812 48.625 471.792969 C 49.363281 473.648438 50.488281 476.503906 51.128906 478.136719 C 53.65625 484.574219 60.460938 497.15625 65.507812 504.722656 C 72.96875 515.894531 79.835938 524.226562 89.472656 533.785156 C 101.765625 545.976562 111.414062 553.175781 126.410156 561.351562 C 135.464844 566.289062 143.597656 569.605469 156.5 573.621094 C 159.265625 574.480469 167.671875 576.519531 170.671875 577.054688 L 175.257812 577.875 C 178.457031 578.445312 184.816406 579.214844 189.832031 579.636719 C 195.640625 580.125 209.277344 580.046875 214.121094 579.492188 C 222.386719 578.550781 224.394531 578.277344 228.425781 577.554688 C 249.363281 573.796875 268.738281 566.066406 286.894531 554.226562 C 301.890625 544.449219 316.804688 530.039062 326.261719 516.191406 C 327.175781 514.855469 328.507812 512.914062 329.226562 511.871094 C 330.707031 509.730469 332.914062 505.96875 334.214844 503.371094 C 334.699219 502.40625 335.535156 500.828125 336.070312 499.863281 C 338.675781 495.1875 342.554688 485.957031 345.199219 478.136719 C 347.738281 470.628906 350.234375 459.914062 351.359375 451.6875 C 351.582031 450.054688 351.886719 447.871094 352.035156 446.828125 C 352.882812 440.925781 353.023438 433.285156 352.4375 425.238281 C 351.664062 414.644531 350.429688 407.019531 348.109375 398.519531 C 339.746094 367.878906 324.757812 344.460938 302.484375 327.246094 C 295.949219 322.195312 287.757812 317.003906 280.917969 313.574219 C 272.898438 309.554688 259.414062 305.125 251.097656 303.777344 C 228.984375 300.199219 208.425781 302.613281 187.820312 311.21875 C 180.035156 314.46875 170.667969 320.027344 162.707031 326.121094 C 159.253906 328.765625 150.125 337.683594 146.75 341.710938 C 138.289062 351.804688 130.886719 364.894531 127.136719 376.390625 C 121.484375 393.707031 120.628906 411.945312 124.675781 428.882812 C 127.402344 440.285156 134.15625 454.300781 141.261719 463.296875 C 147.921875 471.726562 157.371094 479.457031 167.835938 485.042969 C 175.46875 489.117188 186.339844 492.113281 196.039062 492.808594 C 210.484375 493.847656 227.683594 489.082031 239.085938 480.878906 C 246.277344 475.707031 251.964844 469.871094 256.476562 463.023438 C 258.34375 460.191406 261.601562 453.433594 262.660156 450.203125 C 265.066406 442.832031 265.839844 437.824219 265.589844 431.199219 C 265.320312 424.164062 263.828125 418.0625 261.042969 412.628906 C 256.75 404.265625 250.253906 398.167969 242.40625 395.140625 C 234.136719 391.953125 224.871094 393.507812 217.570312 399.3125 C 214.25 401.953125 211.023438 406.996094 209.773438 411.496094 C 208.980469 414.355469 208.917969 419.101562 209.640625 421.460938 C 210.25 423.457031 212.054688 427.109375 212.960938 428.1875 C 213.574219 428.914062 213.625 429.171875 213.535156 431.027344 C 213.160156 438.898438 203.121094 445.148438 194.230469 443.054688 C 191.15625 442.328125 185.5 439.183594 182.949219 436.78125 C 180.242188 434.234375 177.941406 431.316406 176.351562 428.417969 C 171.289062 419.203125 169.617188 409.15625 171.503906 399.304688 C 173.492188 388.898438 178.144531 380.332031 186.050781 372.523438 C 190.386719 368.238281 192.457031 366.578125 196.921875 363.804688 C 203.058594 359.996094 208.511719 357.628906 214.855469 356.023438 C 221.25 354.402344 224.265625 354.011719 230.316406 354.023438 C 245.714844 354.042969 258.742188 358.40625 271.402344 367.785156 C 274.3125 369.945312 280.160156 375.328125 282.851562 378.332031 C 288.425781 384.546875 294.304688 394.542969 297.589844 403.378906 C 300.980469 412.5 302.25 419.09375 302.542969 429.152344 C 302.683594 434.003906 302.628906 436.066406 302.257812 439.410156 C 300.6875 453.613281 297.234375 464.53125 290.296875 477.191406 C 288.695312 480.113281 283.941406 487.128906 281.429688 490.28125 C 278.34375 494.148438 271.035156 501.464844 266.667969 505.066406 C 254.683594 514.9375 240.417969 522.078125 225.59375 525.621094 C 217.636719 527.523438 213.335938 528.121094 204.722656 528.515625 C 198.664062 528.789062 197.164062 528.773438 192.800781 528.375 C 176.460938 526.890625 162.027344 522.484375 147.730469 514.625 C 138.929688 509.785156 131.089844 503.902344 123.253906 496.265625 C 116.203125 489.394531 107.222656 477.675781 102.664062 469.386719 C 100.582031 465.605469 97.375 458.855469 95.882812 455.128906 L 94.265625 451.082031 C 90.125 440.71875 87.074219 428.234375 85.875 416.738281 C 85.339844 411.628906 85.417969 397.144531 86.007812 391.953125 C 87.054688 382.773438 89.386719 371.953125 92.105469 363.707031 C 94.984375 354.976562 99.804688 344.488281 104.828125 336.042969 C 107.164062 332.109375 108.425781 330.179688 112.585938 324.164062 C 113.734375 322.503906 119.320312 315.664062 121.402344 313.371094 C 125.359375 309.011719 133.167969 301.542969 136.664062 298.773438 C 146.835938 290.71875 156.71875 284.316406 167.027344 279.109375 C 178.011719 273.558594 191.875 268.765625 204.542969 266.144531 C 211.386719 264.726562 212.460938 264.550781 218.035156 263.960938 C 224.867188 263.234375 241.167969 262.925781 245.96875 263.429688 C 264.601562 265.390625 275.339844 267.988281 292.660156 274.738281 C 297.910156 276.785156 307.726562 281.5625 313.671875 284.96875 C 319.863281 288.515625 332.4375 297.304688 338.390625 302.257812 C 346.253906 308.792969 354.292969 316.882812 361.230469 325.246094 C 371.332031 337.417969 378.472656 349.09375 385.09375 364.246094 C 389.527344 374.394531 391.382812 379.457031 393.707031 387.726562 C 397.269531 400.414062 398.242188 405.589844 400.082031 421.59375 C 400.875 428.523438 400.675781 442.742188 399.640625 453.308594 C 398.773438 462.128906 396.210938 475.535156 393.550781 485.152344 C 391.734375 491.722656 388.863281 500.464844 387.394531 503.910156 C 387.109375 504.578125 386.191406 506.765625 385.359375 508.769531 C 384.523438 510.773438 383.34375 513.503906 382.730469 514.839844 C 381.1875 518.214844 375.539062 529.257812 374.105469 531.710938 L 372.394531 534.632812 C 368.414062 541.445312 365.101562 546.722656 358.371094 556.945312 C 353.863281 563.792969 352.871094 565.691406 351.855469 569.414062 C 351.246094 571.660156 351.136719 572.601562 351.132812 575.699219 C 351.128906 578.953125 351.210938 579.589844 351.875 581.636719 C 354.398438 589.398438 360.527344 595.207031 368.226562 597.144531 C 370.550781 597.726562 375.425781 598.179688 377.238281 597.980469 C 385.625 597.050781 391.457031 593.417969 397.671875 585.242188 C 401.21875 580.574219 407.375 571.734375 411.273438 565.71875 C 414.03125 561.464844 415.964844 558.238281 420.5 550.332031 C 422.734375 546.441406 428.476562 534.933594 430.441406 530.402344 C 431.257812 528.523438 432.105469 526.621094 432.320312 526.175781 C 433.40625 523.929688 439.019531 508.730469 439.941406 505.53125 C 442.863281 495.414062 444.007812 490.964844 444.992188 485.828125 C 445.378906 483.824219 445.933594 480.972656 446.222656 479.488281 C 446.894531 476.066406 447.644531 471.371094 448.503906 465.183594 C 450.125 453.484375 450.132812 453.347656 450.132812 439.679688 C 450.132812 427.042969 449.949219 422.78125 449.03125 414.175781 C 448.476562 408.976562 446.699219 398.300781 445.542969 393.257812 C 445.019531 390.957031 444.402344 388.164062 444.171875 387.050781 C 443.328125 382.925781 441.457031 376.378906 438.8125 368.292969 C 437.058594 362.933594 434.820312 357.113281 431.648438 349.671875 C 430.890625 347.890625 429.988281 345.699219 429.644531 344.804688 C 429.300781 343.910156 427.640625 340.386719 425.960938 336.976562 C 423.152344 331.289062 421.972656 329.113281 417.484375 321.332031 C 404.738281 299.253906 384.917969 276.550781 364.449219 260.585938 C 352.757812 251.464844 342.445312 244.675781 330.0625 237.949219 C 316.824219 230.753906 300.105469 223.84375 287.296875 220.277344 C 275.457031 216.976562 268.988281 215.640625 258.488281 214.320312 C 249.226562 213.160156 232.101562 212.464844 224.917969 212.964844 " fill-opacity="1" fill-rule="evenodd"/><g fill="#ffffff" fill-opacity="1"><g transform="translate(509.100029, 475.124996)"><g><path d="M 12.875 0 L 12.875 -132.484375 L 98.4375 -132.484375 L 98.4375 -111.6875 L 35.046875 -111.6875 L 35.046875 -79.03125 L 87.40625 -79.03125 L 87.40625 -58.234375 L 35.046875 -58.234375 L 35.046875 -20.796875 L 98.4375 -20.796875 L 98.4375 0 Z M 12.875 0 "/></g></g></g><g fill="#ffffff" fill-opacity="1"><g transform="translate(616.737658, 475.124996)"><g><path d="M 81.609375 0 L 81.609375 -47.84375 C 81.609375 -50.96875 81.390625 -54.429688 80.953125 -58.234375 C 80.523438 -62.035156 79.53125 -65.695312 77.96875 -69.21875 C 76.40625 -72.75 74.070312 -75.648438 70.96875 -77.921875 C 67.875 -80.191406 63.691406 -81.328125 58.421875 -81.328125 C 55.597656 -81.328125 52.804688 -80.863281 50.046875 -79.9375 C 47.285156 -79.019531 44.785156 -77.441406 42.546875 -75.203125 C 40.304688 -72.972656 38.507812 -69.910156 37.15625 -66.015625 C 35.8125 -62.117188 35.140625 -57.132812 35.140625 -51.0625 L 21.984375 -56.671875 C 21.984375 -65.140625 23.625 -72.804688 26.90625 -79.671875 C 30.1875 -86.535156 35.015625 -92.007812 41.390625 -96.09375 C 47.773438 -100.175781 55.628906 -102.21875 64.953125 -102.21875 C 72.304688 -102.21875 78.375 -100.988281 83.15625 -98.53125 C 87.945312 -96.082031 91.753906 -92.953125 94.578125 -89.140625 C 97.398438 -85.335938 99.484375 -81.289062 100.828125 -77 C 102.179688 -72.707031 103.054688 -68.644531 103.453125 -64.8125 C 103.847656 -60.976562 104.046875 -57.863281 104.046875 -55.46875 L 104.046875 0 Z M 12.703125 0 L 12.703125 -99.359375 L 32.46875 -99.359375 L 32.46875 -68.546875 L 35.140625 -68.546875 L 35.140625 0 Z M 12.703125 0 "/></g></g></g><g fill="#ffffff" fill-opacity="1"><g transform="translate(731.82713, 475.124996)"><g><path d="M 54.640625 46.921875 C 49.128906 46.921875 43.84375 46.0625 38.78125 44.34375 C 33.71875 42.625 29.160156 40.15625 25.109375 36.9375 C 21.066406 33.71875 17.757812 29.835938 15.1875 25.296875 L 35.609375 15.1875 C 37.503906 18.800781 40.1875 21.484375 43.65625 23.234375 C 47.125 24.984375 50.816406 25.859375 54.734375 25.859375 C 59.335938 25.859375 63.445312 25.039062 67.0625 23.40625 C 70.6875 21.78125 73.492188 19.390625 75.484375 16.234375 C 77.472656 13.078125 78.410156 9.140625 78.296875 4.421875 L 78.296875 -23.828125 L 81.046875 -23.828125 L 81.046875 -99.359375 L 100.46875 -99.359375 L 100.46875 4.78125 C 100.46875 7.300781 100.359375 9.707031 100.140625 12 C 99.921875 14.300781 99.566406 16.554688 99.078125 18.765625 C 97.609375 25.203125 94.785156 30.488281 90.609375 34.625 C 86.441406 38.769531 81.273438 41.851562 75.109375 43.875 C 68.953125 45.90625 62.128906 46.921875 54.640625 46.921875 Z M 52.71875 2.765625 C 43.582031 2.765625 35.609375 0.460938 28.796875 -4.140625 C 21.984375 -8.742188 16.707031 -15 12.96875 -22.90625 C 9.226562 -30.820312 7.359375 -39.75 7.359375 -49.6875 C 7.359375 -59.738281 9.242188 -68.703125 13.015625 -76.578125 C 16.785156 -84.460938 22.132812 -90.691406 29.0625 -95.265625 C 36 -99.835938 44.160156 -102.125 53.546875 -102.125 C 62.992188 -102.125 70.921875 -99.835938 77.328125 -95.265625 C 83.734375 -90.691406 88.59375 -84.445312 91.90625 -76.53125 C 95.21875 -68.625 96.875 -59.675781 96.875 -49.6875 C 96.875 -39.8125 95.21875 -30.898438 91.90625 -22.953125 C 88.59375 -15.015625 83.65625 -8.742188 77.09375 -4.140625 C 70.53125 0.460938 62.40625 2.765625 52.71875 2.765625 Z M 56.125 -17.109375 C 62.070312 -17.109375 66.867188 -18.472656 70.515625 -21.203125 C 74.160156 -23.929688 76.828125 -27.75 78.515625 -32.65625 C 80.203125 -37.5625 81.046875 -43.238281 81.046875 -49.6875 C 81.046875 -56.1875 80.203125 -61.875 78.515625 -66.75 C 76.828125 -71.625 74.203125 -75.425781 70.640625 -78.15625 C 67.085938 -80.882812 62.492188 -82.25 56.859375 -82.25 C 50.910156 -82.25 46.003906 -80.789062 42.140625 -77.875 C 38.273438 -74.96875 35.421875 -71.046875 33.578125 -66.109375 C 31.734375 -61.171875 30.8125 -55.695312 30.8125 -49.6875 C 30.8125 -43.613281 31.71875 -38.109375 33.53125 -33.171875 C 35.34375 -28.234375 38.117188 -24.320312 41.859375 -21.4375 C 45.597656 -18.550781 50.351562 -17.109375 56.125 -17.109375 Z M 56.125 -17.109375 "/></g></g></g><g fill="#ffffff" fill-opacity="1"><g transform="translate(845.168631, 475.124996)"><g><path d="M 12.875 0 L 12.875 -99.359375 L 32.46875 -99.359375 L 32.46875 -75.15625 L 30.078125 -78.296875 C 31.304688 -81.609375 32.945312 -84.628906 35 -87.359375 C 37.0625 -90.085938 39.53125 -92.335938 42.40625 -94.109375 C 44.863281 -95.765625 47.578125 -97.066406 50.546875 -98.015625 C 53.523438 -98.972656 56.578125 -99.554688 59.703125 -99.765625 C 62.835938 -99.984375 65.875 -99.847656 68.8125 -99.359375 L 68.8125 -78.65625 C 65.875 -79.519531 62.488281 -79.796875 58.65625 -79.484375 C 54.820312 -79.179688 51.367188 -78.109375 48.296875 -76.265625 C 45.234375 -74.609375 42.734375 -72.492188 40.796875 -69.921875 C 38.867188 -67.347656 37.441406 -64.421875 36.515625 -61.140625 C 35.597656 -57.859375 35.140625 -54.316406 35.140625 -50.515625 L 35.140625 0 Z M 12.875 0 "/></g></g></g><g fill="#ffffff" fill-opacity="1"><g transform="translate(916.283083, 475.124996)"><g><path d="M 40.65625 2.765625 C 33.488281 2.765625 27.421875 1.398438 22.453125 -1.328125 C 17.484375 -4.054688 13.722656 -7.691406 11.171875 -12.234375 C 8.628906 -16.773438 7.359375 -21.773438 7.359375 -27.234375 C 7.359375 -32.015625 8.15625 -36.320312 9.75 -40.15625 C 11.34375 -43.988281 13.796875 -47.300781 17.109375 -50.09375 C 20.421875 -52.882812 24.710938 -55.171875 29.984375 -56.953125 C 33.972656 -58.234375 38.648438 -59.394531 44.015625 -60.4375 C 49.390625 -61.488281 55.21875 -62.457031 61.5 -63.34375 C 67.789062 -64.226562 74.367188 -65.191406 81.234375 -66.234375 L 73.328125 -61.734375 C 73.390625 -68.597656 71.851562 -73.65625 68.71875 -76.90625 C 65.59375 -80.15625 60.320312 -81.78125 52.90625 -81.78125 C 48.425781 -81.78125 44.097656 -80.738281 39.921875 -78.65625 C 35.753906 -76.570312 32.84375 -72.984375 31.1875 -67.890625 L 10.953125 -74.25 C 13.398438 -82.644531 18.070312 -89.390625 24.96875 -94.484375 C 31.875 -99.578125 41.1875 -102.125 52.90625 -102.125 C 61.726562 -102.125 69.5 -100.679688 76.21875 -97.796875 C 82.9375 -94.910156 87.921875 -90.1875 91.171875 -83.625 C 92.953125 -80.132812 94.023438 -76.5625 94.390625 -72.90625 C 94.753906 -69.257812 94.9375 -65.289062 94.9375 -61 L 94.9375 0 L 75.53125 0 L 75.53125 -21.53125 L 78.75 -18.03125 C 74.269531 -10.851562 69.039062 -5.59375 63.0625 -2.25 C 57.082031 1.09375 49.613281 2.765625 40.65625 2.765625 Z M 45.078125 -14.90625 C 50.109375 -14.90625 54.398438 -15.789062 57.953125 -17.5625 C 61.515625 -19.34375 64.351562 -21.519531 66.46875 -24.09375 C 68.582031 -26.675781 70.007812 -29.101562 70.75 -31.375 C 71.914062 -34.195312 72.570312 -37.429688 72.71875 -41.078125 C 72.875 -44.722656 72.953125 -47.679688 72.953125 -49.953125 L 79.765625 -47.9375 C 73.078125 -46.894531 67.34375 -45.972656 62.5625 -45.171875 C 57.78125 -44.367188 53.671875 -43.613281 50.234375 -42.90625 C 46.796875 -42.207031 43.757812 -41.429688 41.125 -40.578125 C 38.550781 -39.648438 36.375 -38.570312 34.59375 -37.34375 C 32.8125 -36.125 31.445312 -34.71875 30.5 -33.125 C 29.550781 -31.53125 29.078125 -29.660156 29.078125 -27.515625 C 29.078125 -25.054688 29.6875 -22.890625 30.90625 -21.015625 C 32.132812 -19.148438 33.929688 -17.664062 36.296875 -16.5625 C 38.660156 -15.457031 41.585938 -14.90625 45.078125 -14.90625 Z M 45.078125 -14.90625 "/></g></g></g><g fill="#ffffff" fill-opacity="1"><g transform="translate(1022.264707, 475.124996)"><g><path d="M 132.203125 0 L 132.203125 -60.359375 C 132.203125 -67.160156 130.515625 -72.476562 127.140625 -76.3125 C 123.765625 -80.144531 119.195312 -82.0625 113.4375 -82.0625 C 109.875 -82.0625 106.679688 -81.25 103.859375 -79.625 C 101.046875 -78 98.8125 -75.609375 97.15625 -72.453125 C 95.5 -69.296875 94.671875 -65.539062 94.671875 -61.1875 L 84.828125 -66.96875 C 84.765625 -73.84375 86.3125 -79.898438 89.46875 -85.140625 C 92.625 -90.390625 96.898438 -94.484375 102.296875 -97.421875 C 107.703125 -100.367188 113.71875 -101.84375 120.34375 -101.84375 C 131.3125 -101.84375 139.722656 -98.546875 145.578125 -91.953125 C 151.441406 -85.359375 154.375 -76.695312 154.375 -65.96875 L 154.375 0 Z M 12.703125 0 L 12.703125 -99.359375 L 32.296875 -99.359375 L 32.296875 -68.546875 L 35.046875 -68.546875 L 35.046875 0 Z M 72.59375 0 L 72.59375 -60.078125 C 72.59375 -67.003906 70.90625 -72.398438 67.53125 -76.265625 C 64.15625 -80.128906 59.554688 -82.0625 53.734375 -82.0625 C 48.085938 -82.0625 43.5625 -80.128906 40.15625 -76.265625 C 36.75 -72.398438 35.046875 -67.375 35.046875 -61.1875 L 25.109375 -67.796875 C 25.109375 -74.242188 26.703125 -80.039062 29.890625 -85.1875 C 33.085938 -90.34375 37.398438 -94.40625 42.828125 -97.375 C 48.253906 -100.351562 54.34375 -101.84375 61.09375 -101.84375 C 68.507812 -101.84375 74.71875 -100.265625 79.71875 -97.109375 C 84.71875 -93.953125 88.457031 -89.65625 90.9375 -84.21875 C 93.425781 -78.789062 94.671875 -72.675781 94.671875 -65.875 L 94.671875 0 Z M 72.59375 0 "/></g></g></g><g fill="#ffffff" fill-opacity="1"><g transform="translate(1187.681202, 475.124996)"><g><path d="M 28.890625 -119.421875 L 32.5625 -132.9375 L 43.140625 -132.9375 L 39.46875 -119.421875 Z M -3.125 0 L 23.546875 -99.359375 L 34.125 -99.359375 L 7.453125 0 Z M -3.125 0 "/></g></g></g><g fill="#ffffff" fill-opacity="1"><g transform="translate(1227.70032, 475.124996)"><g><path d="M 65.78125 -126.046875 C 60.257812 -126.046875 55.796875 -124.722656 52.390625 -122.078125 C 48.984375 -119.441406 46.484375 -115.085938 44.890625 -109.015625 L 42.234375 -99.359375 L 70.46875 -99.359375 L 67.890625 -89.703125 L 39.65625 -89.703125 L 15.640625 0 L 5.0625 0 L 29.078125 -89.703125 L 11.40625 -89.703125 L 13.984375 -99.359375 L 31.640625 -99.359375 L 34.21875 -108.65625 C 35.207031 -112.519531 36.515625 -116.109375 38.140625 -119.421875 C 39.765625 -122.734375 42.203125 -125.769531 45.453125 -128.53125 C 48.828125 -131.28125 52.335938 -133.082031 55.984375 -133.9375 C 59.628906 -134.800781 63.414062 -135.234375 67.34375 -135.234375 L 80.125 -135.234375 L 77.640625 -126.046875 Z M 65.78125 -126.046875 "/></g></g></g><g fill="#ffffff" fill-opacity="1"><g transform="translate(1291.546916, 475.124996)"><g><path d="M 99.359375 -99.359375 L 110.484375 -99.359375 L 19.234375 44.15625 L 8.1875 44.15625 L 36.4375 0 L 22.625 -99.359375 L 33.953125 -99.359375 L 45.453125 -14.171875 Z M 99.359375 -99.359375 "/></g></g></g></svg>