<svg xmlns="http://www.w3.org/2000/svg" xmlns:xlink="http://www.w3.org/1999/xlink" width="3152" zoomAndPan="magnify" viewBox="0 0 2364 2364.000008" height="3152" preserveAspectRatio="xMidYMid meet" version="1.0"><path fill="#ed4751" d="M 1120.957031 481.425781 C 1114.726562 481.859375 1105.867188 482.472656 1101.265625 482.789062 C 1070.523438 484.910156 1035.292969 489.605469 1011.039062 494.816406 C 975.003906 502.5625 932.160156 514.90625 904.347656 525.558594 C 857.929688 543.339844 841.425781 550.800781 805.039062 570.476562 C 753.230469 598.480469 722.285156 619.808594 672.101562 662.078125 C 657.265625 674.574219 620.988281 710.601562 605.121094 728.59375 C 567.777344 770.9375 546.765625 801.078125 515.21875 857.574219 C 495.46875 892.941406 476.667969 937.128906 463.179688 979.890625 C 447.125 1030.789062 441.039062 1060.847656 434.164062 1123.234375 C 432.078125 1142.15625 431.132812 1204.992188 432.621094 1225.804688 C 434.875 1257.285156 440.863281 1298.363281 447.199219 1325.742188 C 451.566406 1344.617188 457.367188 1367.902344 458.976562 1373 C 462.445312 1384 473.222656 1414.136719 477.8125 1425.675781 C 480.503906 1432.445312 484.617188 1442.859375 486.953125 1448.816406 C 496.167969 1472.300781 520.992188 1518.195312 539.414062 1545.796875 C 566.621094 1586.558594 591.683594 1616.949219 626.835938 1651.820312 C 671.679688 1696.296875 706.875 1722.566406 761.582031 1752.390625 C 794.621094 1770.402344 824.289062 1782.5 871.363281 1797.15625 C 881.445312 1800.296875 912.113281 1807.726562 923.054688 1809.683594 L 939.792969 1812.671875 C 951.46875 1814.757812 974.660156 1817.5625 992.960938 1819.101562 C 1014.15625 1820.886719 1063.898438 1820.589844 1081.574219 1818.574219 C 1111.726562 1815.132812 1119.042969 1814.140625 1133.753906 1811.5 C 1210.132812 1797.792969 1280.824219 1769.589844 1347.0625 1726.402344 C 1401.769531 1690.730469 1456.179688 1638.160156 1490.679688 1587.640625 C 1494.007812 1582.765625 1498.875 1575.679688 1501.492188 1571.886719 C 1506.890625 1564.070312 1514.941406 1550.347656 1519.6875 1540.875 C 1521.453125 1537.355469 1524.5 1531.59375 1526.460938 1528.074219 C 1535.964844 1511.023438 1550.117188 1477.339844 1559.765625 1448.816406 C 1569.027344 1421.417969 1578.128906 1382.335938 1582.234375 1352.324219 C 1583.046875 1346.367188 1584.160156 1338.394531 1584.703125 1334.601562 C 1587.796875 1313.058594 1588.3125 1285.191406 1586.167969 1255.835938 C 1583.34375 1217.179688 1578.839844 1189.371094 1570.375 1158.355469 C 1539.875 1046.578125 1485.183594 961.144531 1403.933594 898.34375 C 1380.097656 879.921875 1350.214844 860.976562 1325.257812 848.464844 C 1295.996094 833.796875 1246.804688 817.640625 1216.460938 812.726562 C 1135.796875 799.667969 1060.792969 808.484375 985.625 839.867188 C 957.214844 851.726562 923.050781 872 894.007812 894.234375 C 881.40625 903.882812 848.097656 936.425781 835.789062 951.109375 C 804.929688 987.9375 777.921875 1035.695312 764.238281 1077.628906 C 743.621094 1140.804688 740.503906 1207.339844 755.265625 1269.128906 C 765.207031 1310.730469 789.84375 1361.855469 815.769531 1394.671875 C 840.066406 1425.425781 874.535156 1453.636719 912.714844 1474.015625 C 940.5625 1488.878906 980.21875 1499.796875 1015.605469 1502.339844 C 1068.308594 1506.125 1131.046875 1488.742188 1172.648438 1458.820312 C 1198.886719 1439.949219 1219.625 1418.652344 1236.09375 1393.679688 C 1242.90625 1383.351562 1254.792969 1358.695312 1258.644531 1346.910156 C 1267.433594 1320.023438 1270.253906 1301.746094 1269.335938 1277.578125 C 1268.359375 1251.914062 1262.90625 1229.648438 1252.742188 1209.832031 C 1237.089844 1179.320312 1213.386719 1157.078125 1184.753906 1146.035156 C 1154.585938 1134.402344 1120.792969 1140.078125 1094.152344 1161.253906 C 1082.039062 1170.886719 1070.269531 1189.277344 1065.710938 1205.699219 C 1062.816406 1216.128906 1062.582031 1233.449219 1065.21875 1242.050781 C 1067.449219 1249.335938 1074.027344 1262.65625 1077.335938 1266.585938 C 1079.574219 1269.246094 1079.761719 1270.175781 1079.4375 1276.949219 C 1078.058594 1305.660156 1041.4375 1328.472656 1009.003906 1320.828125 C 997.796875 1318.183594 977.160156 1306.710938 967.851562 1297.945312 C 957.976562 1288.644531 949.585938 1278.011719 943.777344 1267.429688 C 925.316406 1233.8125 919.210938 1197.160156 926.089844 1161.226562 C 933.351562 1123.253906 950.324219 1092.011719 979.167969 1063.515625 C 994.984375 1047.886719 1002.539062 1041.832031 1018.832031 1031.71875 C 1041.214844 1017.820312 1061.113281 1009.1875 1084.253906 1003.324219 C 1107.578125 997.417969 1118.578125 995.992188 1140.648438 996.023438 C 1196.824219 996.101562 1244.351562 1012.023438 1290.539062 1046.238281 C 1301.164062 1054.113281 1322.496094 1073.753906 1332.3125 1084.707031 C 1352.640625 1107.386719 1374.09375 1143.847656 1386.078125 1176.085938 C 1398.453125 1209.367188 1403.074219 1233.414062 1404.148438 1270.113281 C 1404.664062 1287.816406 1404.457031 1295.332031 1403.109375 1307.527344 C 1397.382812 1359.34375 1384.773438 1399.175781 1359.46875 1445.367188 C 1353.628906 1456.03125 1336.289062 1481.625 1327.117188 1493.121094 C 1315.867188 1507.222656 1289.207031 1533.921875 1273.265625 1547.058594 C 1229.550781 1583.070312 1177.5 1609.121094 1123.417969 1622.046875 C 1094.390625 1628.988281 1078.699219 1631.160156 1047.285156 1632.597656 C 1025.1875 1633.605469 1019.714844 1633.542969 1003.789062 1632.09375 C 944.183594 1626.671875 891.523438 1610.605469 839.363281 1581.921875 C 807.261719 1564.265625 778.664062 1542.816406 750.074219 1514.957031 C 724.351562 1489.890625 691.59375 1447.125 674.957031 1416.894531 C 667.367188 1403.097656 655.660156 1378.476562 650.222656 1364.878906 L 644.320312 1350.109375 C 629.21875 1312.308594 618.085938 1266.761719 613.703125 1224.824219 C 611.757812 1206.179688 612.042969 1153.339844 614.199219 1134.402344 C 618.007812 1100.914062 626.527344 1061.445312 636.445312 1031.351562 C 646.941406 999.511719 664.53125 961.25 682.851562 930.433594 C 691.378906 916.078125 695.976562 909.039062 711.152344 887.097656 C 715.339844 881.039062 735.71875 856.09375 743.3125 847.726562 C 757.753906 831.816406 786.238281 804.570312 798.996094 794.46875 C 836.101562 765.085938 872.15625 741.734375 909.761719 722.730469 C 949.84375 702.476562 1000.410156 684.996094 1046.621094 675.429688 C 1071.589844 670.257812 1075.515625 669.625 1095.847656 667.464844 C 1120.773438 664.820312 1180.242188 663.691406 1197.753906 665.535156 C 1265.734375 672.679688 1304.90625 682.164062 1368.085938 706.78125 C 1387.25 714.25 1423.0625 731.683594 1444.746094 744.101562 C 1467.339844 757.042969 1513.199219 789.117188 1534.925781 807.175781 C 1563.613281 831.019531 1592.9375 860.535156 1618.253906 891.046875 C 1655.09375 935.453125 1681.15625 978.046875 1705.300781 1033.320312 C 1721.476562 1070.347656 1728.25 1088.816406 1736.722656 1118.980469 C 1749.722656 1165.269531 1753.277344 1184.15625 1759.976562 1242.542969 C 1762.871094 1267.816406 1762.152344 1319.683594 1758.371094 1358.234375 C 1755.210938 1390.417969 1745.863281 1439.316406 1736.152344 1474.414062 C 1729.523438 1498.382812 1719.058594 1530.273438 1713.691406 1542.84375 C 1712.652344 1545.28125 1709.3125 1553.253906 1706.273438 1560.566406 C 1703.230469 1567.875 1698.914062 1577.84375 1696.683594 1582.71875 C 1691.050781 1595.019531 1670.449219 1635.316406 1665.21875 1644.253906 L 1658.980469 1654.925781 C 1644.460938 1679.773438 1632.363281 1699.023438 1607.816406 1736.3125 C 1591.371094 1761.304688 1587.75 1768.226562 1584.050781 1781.8125 C 1581.820312 1790.007812 1581.425781 1793.4375 1581.414062 1804.742188 C 1581.402344 1816.605469 1581.691406 1818.933594 1584.121094 1826.402344 C 1593.328125 1854.707031 1615.679688 1875.90625 1643.769531 1882.96875 C 1652.25 1885.101562 1670.03125 1886.753906 1676.648438 1886.019531 C 1707.242188 1882.636719 1728.523438 1869.371094 1751.1875 1839.546875 C 1764.132812 1822.515625 1786.59375 1790.277344 1800.8125 1768.328125 C 1810.867188 1752.804688 1817.921875 1741.039062 1834.476562 1712.191406 C 1842.621094 1697.996094 1863.566406 1656.015625 1870.742188 1639.492188 C 1873.722656 1632.636719 1876.804688 1625.695312 1877.589844 1624.070312 C 1881.558594 1615.867188 1902.03125 1560.417969 1905.402344 1548.75 C 1916.0625 1511.84375 1920.226562 1495.609375 1923.824219 1476.875 C 1925.230469 1469.566406 1927.25 1459.152344 1928.316406 1453.738281 C 1930.765625 1441.265625 1933.496094 1424.128906 1936.628906 1401.554688 C 1942.550781 1358.875 1942.582031 1358.375 1942.582031 1308.511719 C 1942.582031 1262.417969 1941.910156 1246.875 1938.558594 1215.46875 C 1936.535156 1196.507812 1930.042969 1157.5625 1925.835938 1139.164062 C 1923.917969 1130.769531 1921.667969 1120.578125 1920.835938 1116.519531 C 1917.753906 1101.46875 1910.929688 1077.589844 1901.277344 1048.089844 C 1894.875 1028.53125 1886.710938 1007.304688 1875.148438 980.152344 C 1872.378906 973.65625 1869.089844 965.664062 1867.832031 962.394531 C 1866.574219 959.128906 1860.527344 946.277344 1854.390625 933.84375 C 1844.144531 913.085938 1839.847656 905.148438 1823.46875 876.773438 C 1776.976562 796.222656 1704.667969 713.398438 1629.984375 655.152344 C 1587.335938 621.886719 1549.710938 597.117188 1504.546875 572.574219 C 1456.246094 546.328125 1395.253906 521.121094 1348.527344 508.101562 C 1305.332031 496.066406 1281.738281 491.1875 1243.421875 486.375 C 1209.644531 482.132812 1147.171875 479.609375 1120.957031 481.425781 " fill-opacity="1" fill-rule="evenodd"/></svg>