<svg xmlns="http://www.w3.org/2000/svg" xmlns:xlink="http://www.w3.org/1999/xlink" width="1080" zoomAndPan="magnify" viewBox="0 0 810 809.999993" height="1080" preserveAspectRatio="xMidYMid meet" version="1.0"><defs><clipPath id="b94ae83cfe"><path d="M 131 152.292969 L 679 152.292969 L 679 657.902344 L 131 657.902344 Z M 131 152.292969 " clip-rule="nonzero"/></clipPath><clipPath id="3f8a7cb270"><path d="M 869.140625 429.816406 L 413.898438 885.058594 L -41.34375 429.816406 L 413.898438 -25.429688 Z M 869.140625 429.816406 " clip-rule="nonzero"/></clipPath><clipPath id="24afecf771"><path d="M 869.140625 429.816406 L 413.898438 885.058594 L -41.34375 429.816406 L 413.898438 -25.429688 Z M 869.140625 429.816406 " clip-rule="nonzero"/></clipPath></defs><g clip-path="url(#b94ae83cfe)"><g clip-path="url(#3f8a7cb270)"><g clip-path="url(#24afecf771)"><path fill="#e9152d" d="M 632.964844 608.871094 C 666.234375 552.496094 683.234375 478.996094 677.359375 416.824219 C 673.9375 380.535156 653.027344 319.191406 633.261719 287.4375 C 599.109375 232.582031 539.082031 186.089844 474.589844 164.550781 C 427.183594 148.71875 357.25 149.1875 309.210938 165.664062 C 172.675781 212.496094 100.574219 348.929688 144.25 477.824219 C 182.277344 590.035156 284.597656 653.789062 390.242188 631.09375 C 430.285156 622.492188 461.796875 604.984375 492.90625 574.039062 C 537.746094 529.449219 557.324219 475.128906 548.796875 419.003906 C 532.3125 310.527344 435.28125 246.59375 338.996094 280.769531 C 314.722656 289.386719 308.882812 293.289062 286.140625 316.078125 C 263.917969 338.34375 259.664062 344.605469 253.683594 363.863281 C 243.332031 397.15625 243.109375 415.640625 252.71875 444.441406 C 259.804688 465.679688 264.9375 474.050781 280.292969 489.410156 C 296.519531 505.636719 302.621094 509.148438 323.839844 514.472656 C 383.59375 529.464844 443.925781 481.753906 433.421875 427.828125 C 429.820312 409.367188 414.492188 392.113281 399.308594 389.4375 C 376.035156 385.335938 357.214844 411.917969 367.378906 434.546875 C 370.929688 442.460938 370.152344 445.304688 363.464844 448.867188 C 348.117188 457.046875 337.125 455.234375 324.285156 442.390625 C 293.980469 412.089844 314.578125 356.527344 362.261719 339.957031 C 439.335938 313.160156 510.132812 401.914062 478.539062 485.726562 C 466.347656 518.082031 433.550781 548.875 397.316406 562.015625 C 382.136719 567.515625 359.664062 572.019531 347.382812 572.019531 C 273.050781 572.019531 208.136719 507.738281 196.191406 422.316406 C 181.496094 317.226562 279.605469 214.988281 393.878906 216.300781 C 452.796875 216.976562 501.398438 238.402344 546.644531 283.644531 C 629.703125 366.707031 637.574219 489.40625 566.519531 593.617188 C 554.542969 611.195312 549.535156 622.351562 550.234375 629.945312 C 551.675781 645.6875 565.308594 657.597656 581.894531 657.597656 C 599.089844 657.597656 610.792969 646.429688 632.964844 608.871094 " fill-opacity="1" fill-rule="evenodd"/></g></g></g></svg>