<svg xmlns="http://www.w3.org/2000/svg" xmlns:xlink="http://www.w3.org/1999/xlink" width="1109" zoomAndPan="magnify" viewBox="0 0 831.75 323.999988" height="432" preserveAspectRatio="xMidYMid meet" version="1.0"><defs><clipPath id="0b4c7ac0bd"><path d="M 52.367188 61 L 271.625 61 L 271.625 263.132812 L 52.367188 263.132812 Z M 52.367188 61 " clip-rule="nonzero"/></clipPath><clipPath id="b87123808e"><path d="M 347.554688 171.925781 L 165.511719 353.96875 L -16.535156 171.925781 L 165.511719 -10.121094 Z M 347.554688 171.925781 " clip-rule="nonzero"/></clipPath><clipPath id="af6dee86ce"><path d="M 347.554688 171.925781 L 165.511719 353.96875 L -16.535156 171.925781 L 165.511719 -10.121094 Z M 347.554688 171.925781 " clip-rule="nonzero"/></clipPath></defs><g clip-path="url(#0b4c7ac0bd)"><g clip-path="url(#b87123808e)"><g clip-path="url(#af6dee86ce)"><path fill="#e9152d" d="M 253.113281 243.523438 C 266.414062 220.984375 273.214844 191.589844 270.863281 166.730469 C 269.496094 152.21875 261.132812 127.6875 253.230469 114.988281 C 239.574219 93.054688 215.570312 74.464844 189.78125 65.847656 C 170.824219 59.519531 142.859375 59.707031 123.648438 66.296875 C 69.050781 85.023438 40.21875 139.582031 57.683594 191.121094 C 72.890625 235.992188 113.804688 261.488281 156.050781 252.414062 C 172.0625 248.972656 184.664062 241.972656 197.105469 229.597656 C 215.035156 211.765625 222.863281 190.042969 219.453125 167.601562 C 212.863281 124.222656 174.0625 98.65625 135.558594 112.324219 C 125.851562 115.769531 123.515625 117.328125 114.421875 126.441406 C 105.535156 135.347656 103.835938 137.851562 101.441406 145.550781 C 97.304688 158.863281 97.214844 166.253906 101.058594 177.773438 C 103.890625 186.265625 105.941406 189.613281 112.085938 195.753906 C 118.574219 202.242188 121.011719 203.648438 129.5 205.777344 C 153.390625 211.773438 177.519531 192.695312 173.316406 171.128906 C 171.878906 163.746094 165.746094 156.847656 159.675781 155.777344 C 150.371094 154.136719 142.84375 164.765625 146.910156 173.816406 C 148.328125 176.980469 148.019531 178.117188 145.34375 179.542969 C 139.207031 182.8125 134.8125 182.089844 129.675781 176.953125 C 117.558594 164.835938 125.796875 142.617188 144.863281 135.992188 C 175.683594 125.277344 203.992188 160.765625 191.359375 194.28125 C 186.484375 207.222656 173.371094 219.535156 158.878906 224.789062 C 152.808594 226.988281 143.824219 228.789062 138.914062 228.789062 C 109.1875 228.789062 83.230469 203.085938 78.453125 168.925781 C 72.578125 126.902344 111.808594 86.019531 157.503906 86.542969 C 181.066406 86.8125 200.5 95.382812 218.59375 113.472656 C 251.808594 146.6875 254.953125 195.753906 226.542969 237.425781 C 221.753906 244.453125 219.75 248.917969 220.027344 251.953125 C 220.605469 258.25 226.058594 263.007812 232.691406 263.007812 C 239.566406 263.007812 244.246094 258.542969 253.113281 243.523438 " fill-opacity="1" fill-rule="evenodd"/></g></g></g><path fill="#ffffff" d="M 296.273438 225.351562 L 296.273438 149.605469 L 345.292969 149.605469 L 345.292969 161.496094 L 308.976562 161.496094 L 308.976562 180.167969 L 338.96875 180.167969 L 338.96875 192.050781 L 308.976562 192.050781 L 308.976562 213.460938 L 345.292969 213.460938 L 345.292969 225.351562 Z M 296.273438 225.351562 " fill-opacity="1" fill-rule="nonzero"/><path fill="#ffffff" d="M 397.308594 225.351562 L 397.308594 197.996094 C 397.308594 196.207031 397.183594 194.230469 396.941406 192.058594 C 396.695312 189.886719 396.125 187.792969 395.230469 185.773438 C 394.335938 183.753906 392.996094 182.097656 391.21875 180.804688 C 389.445312 179.507812 387.046875 178.855469 384.023438 178.855469 C 382.410156 178.855469 380.8125 179.121094 379.230469 179.640625 C 377.648438 180.167969 376.214844 181.070312 374.933594 182.351562 C 373.652344 183.632812 372.625 185.386719 371.851562 187.617188 C 371.082031 189.839844 370.695312 192.6875 370.695312 196.15625 L 363.152344 192.945312 C 363.152344 188.105469 364.09375 183.722656 365.976562 179.792969 C 367.855469 175.867188 370.625 172.738281 374.277344 170.40625 C 377.933594 168.078125 382.429688 166.910156 387.769531 166.910156 C 391.984375 166.910156 395.464844 167.617188 398.203125 169.023438 C 400.945312 170.421875 403.121094 172.210938 404.734375 174.386719 C 406.351562 176.554688 407.546875 178.867188 408.316406 181.324219 C 409.09375 183.78125 409.59375 186.105469 409.824219 188.296875 C 410.054688 190.484375 410.171875 192.261719 410.171875 193.632812 L 410.171875 225.351562 Z M 357.832031 225.351562 L 357.832031 168.539062 L 369.164062 168.539062 L 369.164062 186.160156 L 370.695312 186.160156 L 370.695312 225.351562 Z M 357.832031 225.351562 " fill-opacity="1" fill-rule="nonzero"/><path fill="#ffffff" d="M 447.800781 252.179688 C 444.640625 252.179688 441.609375 251.6875 438.707031 250.707031 C 435.808594 249.722656 433.199219 248.308594 430.878906 246.46875 C 428.558594 244.632812 426.664062 242.414062 425.191406 239.816406 L 436.890625 234.03125 C 437.980469 236.101562 439.519531 237.632812 441.503906 238.628906 C 443.484375 239.628906 445.601562 240.128906 447.851562 240.128906 C 450.488281 240.128906 452.835938 239.664062 454.910156 238.734375 C 456.988281 237.808594 458.597656 236.445312 459.738281 234.640625 C 460.878906 232.835938 461.414062 230.578125 461.34375 227.875 L 461.34375 211.726562 L 462.929688 211.726562 L 462.929688 168.539062 L 474.046875 168.539062 L 474.046875 228.085938 C 474.046875 229.523438 473.980469 230.898438 473.855469 232.21875 C 473.734375 233.535156 473.535156 234.820312 473.257812 236.082031 C 472.414062 239.761719 470.796875 242.789062 468.410156 245.152344 C 466.019531 247.519531 463.058594 249.28125 459.523438 250.4375 C 455.996094 251.601562 452.085938 252.179688 447.800781 252.179688 Z M 446.699219 226.933594 C 441.460938 226.933594 436.890625 225.621094 432.992188 222.992188 C 429.089844 220.359375 426.070312 216.777344 423.925781 212.253906 C 421.78125 207.730469 420.710938 202.632812 420.710938 196.949219 C 420.710938 191.199219 421.789062 186.070312 423.945312 181.566406 C 426.105469 177.054688 429.171875 173.492188 433.144531 170.882812 C 437.113281 168.269531 441.789062 166.964844 447.164062 166.964844 C 452.578125 166.964844 457.121094 168.269531 460.789062 170.882812 C 464.460938 173.492188 467.246094 177.0625 469.144531 181.589844 C 471.042969 186.113281 471.992188 191.234375 471.992188 196.949219 C 471.992188 202.59375 471.042969 207.6875 469.144531 212.226562 C 467.246094 216.769531 464.414062 220.359375 460.652344 222.992188 C 456.894531 225.621094 452.246094 226.933594 446.699219 226.933594 Z M 448.640625 215.570312 C 452.050781 215.570312 454.800781 214.792969 456.890625 213.230469 C 458.980469 211.667969 460.511719 209.484375 461.476562 206.675781 C 462.445312 203.871094 462.929688 200.628906 462.929688 196.949219 C 462.929688 193.230469 462.445312 189.976562 461.476562 187.1875 C 460.511719 184.398438 459.007812 182.226562 456.972656 180.671875 C 454.933594 179.109375 452.296875 178.328125 449.0625 178.328125 C 445.660156 178.328125 442.847656 179.164062 440.632812 180.832031 C 438.417969 182.496094 436.78125 184.738281 435.722656 187.5625 C 434.671875 190.382812 434.148438 193.511719 434.148438 196.949219 C 434.148438 200.417969 434.664062 203.566406 435.699219 206.390625 C 436.738281 209.210938 438.328125 211.445312 440.472656 213.09375 C 442.613281 214.746094 445.339844 215.570312 448.640625 215.570312 Z M 448.640625 215.570312 " fill-opacity="1" fill-rule="nonzero"/><path fill="#ffffff" d="M 488.804688 225.351562 L 488.804688 168.539062 L 500.03125 168.539062 L 500.03125 182.378906 L 498.660156 180.589844 C 499.363281 178.695312 500.300781 176.96875 501.480469 175.40625 C 502.65625 173.84375 504.070312 172.558594 505.726562 171.542969 C 507.128906 170.59375 508.683594 169.851562 510.382812 169.308594 C 512.089844 168.761719 513.84375 168.425781 515.632812 168.304688 C 517.425781 168.179688 519.164062 168.257812 520.847656 168.539062 L 520.847656 180.375 C 519.164062 179.886719 517.222656 179.730469 515.023438 179.910156 C 512.824219 180.085938 510.851562 180.695312 509.09375 181.742188 C 507.339844 182.691406 505.90625 183.902344 504.792969 185.371094 C 503.6875 186.847656 502.875 188.519531 502.347656 190.398438 C 501.824219 192.273438 501.5625 194.300781 501.5625 196.476562 L 501.5625 225.351562 Z M 488.804688 225.351562 " fill-opacity="1" fill-rule="nonzero"/><path fill="#ffffff" d="M 545.464844 226.933594 C 541.347656 226.933594 537.867188 226.152344 535.019531 224.59375 C 532.175781 223.03125 530.023438 220.953125 528.570312 218.359375 C 527.113281 215.765625 526.382812 212.902344 526.382812 209.777344 C 526.382812 207.042969 526.839844 204.582031 527.753906 202.394531 C 528.667969 200.203125 530.070312 198.308594 531.964844 196.707031 C 533.863281 195.113281 536.324219 193.808594 539.347656 192.792969 C 541.632812 192.054688 544.3125 191.386719 547.378906 190.789062 C 550.457031 190.195312 553.792969 189.644531 557.394531 189.136719 C 561 188.632812 564.773438 188.078125 568.707031 187.484375 L 564.175781 190.058594 C 564.207031 186.128906 563.324219 183.234375 561.535156 181.375 C 559.742188 179.515625 556.71875 178.585938 552.46875 178.585938 C 549.90625 178.585938 547.429688 179.183594 545.042969 180.375 C 542.652344 181.570312 540.984375 183.621094 540.035156 186.535156 L 528.433594 182.90625 C 529.84375 178.101562 532.523438 174.246094 536.46875 171.335938 C 540.421875 168.421875 545.753906 166.964844 552.46875 166.964844 C 557.53125 166.964844 561.984375 167.792969 565.832031 169.441406 C 569.679688 171.085938 572.535156 173.785156 574.398438 177.53125 C 575.417969 179.535156 576.03125 181.582031 576.242188 183.664062 C 576.449219 185.753906 576.554688 188.023438 576.554688 190.476562 L 576.554688 225.351562 L 565.4375 225.351562 L 565.4375 213.042969 L 567.285156 215.042969 C 564.714844 219.144531 561.71875 222.152344 558.292969 224.066406 C 554.871094 225.976562 550.59375 226.933594 545.464844 226.933594 Z M 547.988281 216.832031 C 550.875 216.832031 553.332031 216.328125 555.371094 215.3125 C 557.40625 214.292969 559.03125 213.046875 560.242188 211.574219 C 561.457031 210.097656 562.273438 208.710938 562.699219 207.417969 C 563.367188 205.804688 563.742188 203.953125 563.828125 201.867188 C 563.917969 199.78125 563.960938 198.089844 563.960938 196.789062 L 567.859375 197.941406 C 564.027344 198.539062 560.746094 199.066406 558.003906 199.523438 C 555.261719 199.976562 552.90625 200.40625 550.9375 200.8125 C 548.972656 201.21875 547.234375 201.664062 545.722656 202.152344 C 544.246094 202.679688 543 203.292969 541.980469 203.996094 C 540.960938 204.699219 540.179688 205.503906 539.632812 206.417969 C 539.089844 207.328125 538.816406 208.398438 538.816406 209.625 C 538.816406 211.027344 539.167969 212.265625 539.875 213.335938 C 540.578125 214.40625 541.605469 215.253906 542.957031 215.886719 C 544.3125 216.515625 545.988281 216.832031 547.988281 216.832031 Z M 547.988281 216.832031 " fill-opacity="1" fill-rule="nonzero"/><path fill="#ffffff" d="M 658.617188 225.351562 L 658.617188 190.84375 C 658.617188 186.953125 657.648438 183.910156 655.714844 181.714844 C 653.785156 179.523438 651.167969 178.425781 647.867188 178.425781 C 645.832031 178.425781 644.003906 178.890625 642.386719 179.820312 C 640.765625 180.75 639.484375 182.117188 638.535156 183.925781 C 637.589844 185.730469 637.121094 187.878906 637.121094 190.371094 L 631.476562 187.054688 C 631.441406 183.125 632.328125 179.664062 634.136719 176.664062 C 635.945312 173.667969 638.394531 171.328125 641.492188 169.648438 C 644.582031 167.960938 648.023438 167.117188 651.820312 167.117188 C 658.113281 167.117188 662.933594 169.003906 666.285156 172.777344 C 669.640625 176.542969 671.320312 181.496094 671.320312 187.632812 L 671.320312 225.351562 Z M 590.15625 225.351562 L 590.15625 168.539062 L 601.378906 168.539062 L 601.378906 186.160156 L 602.964844 186.160156 L 602.964844 225.351562 Z M 624.460938 225.351562 L 624.460938 191.003906 C 624.460938 187.042969 623.496094 183.957031 621.558594 181.742188 C 619.628906 179.53125 616.996094 178.425781 613.660156 178.425781 C 610.429688 178.425781 607.835938 179.53125 605.882812 181.742188 C 603.9375 183.957031 602.964844 186.828125 602.964844 190.371094 L 597.265625 186.578125 C 597.265625 182.902344 598.179688 179.59375 600.007812 176.648438 C 601.835938 173.699219 604.304688 171.371094 607.414062 169.675781 C 610.527344 167.972656 614.011719 167.117188 617.878906 167.117188 C 622.128906 167.117188 625.683594 168.019531 628.546875 169.828125 C 631.414062 171.632812 633.554688 174.089844 634.976562 177.191406 C 636.40625 180.300781 637.121094 183.796875 637.121094 187.6875 L 637.121094 225.351562 Z M 624.460938 225.351562 " fill-opacity="1" fill-rule="nonzero"/><path fill="#ffffff" d="M 694.199219 157.078125 L 696.304688 149.34375 L 702.371094 149.34375 L 700.253906 157.078125 Z M 675.855469 225.351562 L 691.136719 168.539062 L 697.199219 168.539062 L 681.917969 225.351562 Z M 675.855469 225.351562 " fill-opacity="1" fill-rule="nonzero"/><path fill="#ffffff" d="M 738.257812 153.289062 C 735.097656 153.289062 732.542969 154.042969 730.589844 155.550781 C 728.636719 157.058594 727.203125 159.546875 726.289062 163.015625 L 724.765625 168.539062 L 740.945312 168.539062 L 739.464844 174.0625 L 723.289062 174.0625 L 709.53125 225.351562 L 703.476562 225.351562 L 717.226562 174.0625 L 707.113281 174.0625 L 708.582031 168.539062 L 718.703125 168.539062 L 720.179688 163.230469 C 720.742188 161.019531 721.488281 158.96875 722.421875 157.078125 C 723.351562 155.183594 724.75 153.445312 726.613281 151.867188 C 728.539062 150.289062 730.550781 149.253906 732.640625 148.765625 C 734.738281 148.277344 736.90625 148.03125 739.152344 148.03125 L 746.480469 148.03125 L 745.054688 153.289062 Z M 738.257812 153.289062 " fill-opacity="1" fill-rule="nonzero"/><path fill="#ffffff" d="M 794.074219 168.539062 L 800.453125 168.539062 L 748.167969 250.597656 L 741.84375 250.597656 L 758.019531 225.351562 L 750.109375 168.539062 L 756.597656 168.539062 L 763.191406 217.253906 Z M 794.074219 168.539062 " fill-opacity="1" fill-rule="nonzero"/></svg>